<svg xmlns="http://www.w3.org/2000/svg" version="1.1" xmlns:xlink="http://www.w3.org/1999/xlink" xmlns:svgjs="http://svgjs.dev/svgjs" width="1500" height="935" viewBox="0 0 1500 935"><g transform="matrix(1,0,0,1,-0.9090909090909918,0.3785425101215196)"><svg viewBox="0 0 396 247" data-background-color="#ffffff" preserveAspectRatio="xMidYMid meet" height="935" width="1500" xmlns="http://www.w3.org/2000/svg" xmlns:xlink="http://www.w3.org/1999/xlink"><g id="tight-bounds" transform="matrix(1,0,0,1,0.2400000000000091,-0.09999999999999432)"><svg viewBox="0 0 395.52 247.2" height="247.2" width="395.52"><g><svg></svg></g><g><svg viewBox="0 0 395.52 247.2" height="247.2" width="395.52"><mask id="68a4318b-446f-459a-b019-57b184aa0794"><rect width="395.52" height="247.2" fill="white"></rect><g transform="matrix(1,0,0,1,0,43.19514568798732)" id="clone"><svg viewBox="0 0 395.52 160.80970862402535" height="160.80970862402535" width="395.52"><g><svg viewBox="0 0 395.52 160.80970862402535" height="160.80970862402535" width="395.52"><g><svg viewBox="0 0 395.52 160.80970862402535" height="160.80970862402535" width="395.52"><g><svg viewBox="0 0 395.52 160.80970862402535" height="160.80970862402535" width="395.52"><g id="SvgjsG1420"><svg viewBox="0 0 395.52 160.80970862402535" height="160.80970862402535" width="395.52" id="SvgjsSvg1419"><g><svg viewBox="0 0 395.52 160.80970862402535" height="160.80970862402535" width="395.52"><g transform="matrix(1,0,0,1,0,0)"><svg width="395.52" viewBox="-1.4 -47.4 171.55083333333332 70.35" height="160.80970862402535" data-palette-color="#ed2647"><path d="M1.9 0Q1.6 0 1.6-0.45L1.6-0.45Q1.6-0.95 1.9-1.55 2.2-2.15 2.65-2.55L2.65-2.55Q3.9-3.55 4.33-4.03 4.75-4.5 5-5.15 5.25-5.8 5.6-7.45L5.6-7.45 10.75-31.5 10.4-31.5Q10.1-31.5 9.1-31.6L9.1-31.6Q7.3-31.75 7.15-31.75L7.15-31.75Q4.35-31.75 2.9-29.9L2.9-29.9Q2.8-29.75 2.55-29.38 2.3-29 2.1-29L2.1-29Q1.85-29 1.85-29.45L1.85-29.45Q1.85-29.95 2-30.3L2-30.3Q2.5-32.4 4.15-33.55 5.8-34.7 8.2-34.7L8.2-34.7 9.85-34.65Q11.25-34.55 12.1-34.55L12.1-34.55Q12.9-34.55 13.9-34.65L13.9-34.65 15.2-34.7Q15-34.05 15-32.8L15-32.8Q15-31.15 15.48-28.63 15.95-26.1 16.95-21.7L16.95-21.7 18.5-14.45Q18.6-14 19.15-10.8L19.15-10.8Q21.25-14.95 24.73-21.83 28.2-28.7 30.4-33L30.4-33Q32.3-36.6 33.93-38.68 35.55-40.75 37.3-41.95L37.3-41.95Q38.75-42.9 40.25-43.33 41.75-43.75 43.95-43.9L43.95-43.9Q45.65-44 46.15-44.2L46.15-44.2Q46.25-44.25 46.38-44.33 46.5-44.4 46.6-44.4L46.6-44.4Q46.85-44.4 46.85-44L46.85-44Q46.85-42.3 43.75-41.8L43.75-41.8Q43.55-41.75 42.5-41.6 41.45-41.45 40.43-41.08 39.4-40.7 38.65-40.1L38.65-40.1Q37-38.8 35.8-35.83 34.6-32.85 33.85-27.4L33.85-27.4Q33.5-25.2 33-19.5L33-19.5Q32.4-12 31.35-5.5L31.35-5.5Q31.2-4.3 30.4-3.4L30.4-3.4 30.4-3.35Q31.65-2.9 32.5-2.9L32.5-2.9Q33.2-2.9 33.95-3.18 34.7-3.45 34.85-3.45L34.85-3.45Q35.1-3.45 35.1-3.15L35.1-3.15Q35.1-2.75 34.45-2.05L34.45-2.05Q32.7 0 31.45 0L31.45 0Q31.05 0 29.55-0.4L29.55-0.4Q27.75-0.85 27.2-0.85L27.2-0.85Q26.3-0.85 25.33-0.43 24.35 0 24.25 0L24.25 0Q23.95 0 23.95-0.45L23.95-0.45Q23.95-0.9 24.25-1.48 24.55-2.05 25.15-2.55L25.15-2.55Q26.6-3.6 27.03-4.15 27.45-4.7 27.6-5.65L27.6-5.65 27.85-7.9Q28.4-12.9 28.93-17.6 29.45-22.3 29.9-26.4L29.9-26.4 29.8-26.4Q22.1-12.75 19.9-6.8L19.9-6.8Q19.15-5.2 18.15-3.65 17.15-2.1 16.7-2.1L16.7-2.1Q16.3-2.1 16.3-2.6L16.3-2.6Q16.15-5.65 15.83-7.88 15.5-10.1 14.5-14.95L14.5-14.95Q13.7-18.95 13.7-18.95L13.7-18.95Q12.75-23.15 12.35-25.65L12.35-25.65 12.3-25.65 8.1-5.5Q7.95-4.25 7.2-3.4L7.2-3.4 7.2-3.35Q8.55-2.9 9.2-2.9L9.2-2.9Q9.8-2.9 10.35-3.18 10.9-3.45 11.05-3.45L11.05-3.45Q11.3-3.45 11.3-3.15L11.3-3.15Q11.3-2.7 10.65-2.05L10.65-2.05Q8.75 0 7.65 0L7.65 0Q7.2 0 6.2-0.4L6.2-0.4Q6.05-0.45 5.48-0.65 4.9-0.85 4.35-0.85L4.35-0.85Q3.55-0.85 2.8-0.43 2.05 0 1.9 0L1.9 0ZM41 0.5Q38.45 0.5 38.45-4.35L38.45-4.35Q38.45-9 40.47-13.53 42.5-18.05 45.95-20.93 49.4-23.8 53.4-23.8L53.4-23.8Q55.45-23.8 56.95-23.15L56.95-23.15Q56.3-20.6 56.05-19.4L56.05-19.4 55-14Q53.6-7.6 53.3-5.15L53.3-5.15Q53.25-4.8 53.25-4.3L53.25-4.3Q53.25-3.2 53.9-3.2L53.9-3.2Q54.7-3.2 55.4-4.23 56.1-5.25 57-7.15L57-7.15Q57.05-7.2 57.17-7.45 57.3-7.7 57.5-7.7L57.5-7.7Q57.8-7.7 57.8-7.1L57.8-7.1 57.7-6.3Q57.35-4.65 56.27-3.05 55.2-1.45 53.87-0.48 52.55 0.5 51.5 0.5L51.5 0.5Q49.75 0.5 49.75-2.35L49.75-2.35Q49.75-3.45 50-4.6L50-4.6 50.85-8.95 50.8-8.95Q48.4-4.75 45.67-2.13 42.95 0.5 41 0.5L41 0.5ZM43.35-3.6Q44.75-3.6 46.57-5.78 48.4-7.95 49.97-11.1 51.55-14.25 52.15-16.75L52.15-16.75 52.95-19.95Q51.45-20.95 49.8-20.95L49.8-20.95Q47.65-20.95 45.87-18.48 44.1-16 43.1-12.48 42.1-8.95 42.1-6.1L42.1-6.1Q42.1-4.85 42.37-4.23 42.65-3.6 43.35-3.6L43.35-3.6ZM62.65 0.5Q62.45 0.5 62.32 0.43 62.2 0.35 62.2 0.25L62.2 0.25Q62.2 0.1 62.5-0.4 62.8-0.9 62.95-1.8L62.95-1.8Q63.15-2.85 63.3-3.73 63.45-4.6 63.6-5.35L63.6-5.35Q64.84-12.2 65.27-14.93 65.7-17.65 65.65-18.9L65.65-18.9Q65.65-19.55 65.55-19.85 65.45-20.15 65.09-20.15L65.09-20.15Q64.65-20.15 63.95-19.4 63.25-18.65 62.65-17.65L62.65-17.65Q62.4-17.2 62.2-16.88 62-16.55 61.87-16.4 61.75-16.25 61.6-16.25L61.6-16.25Q61.4-16.25 61.3-16.4 61.2-16.55 61.2-16.8L61.2-16.8Q61.2-17.75 62.27-19.45 63.35-21.15 64.82-22.48 66.3-23.8 67.45-23.8L67.45-23.8Q68.4-23.8 68.77-23.05 69.15-22.3 69.15-20.7L69.15-20.7Q69.15-18.5 68.2-14.75L68.2-14.75 68.3-14.75Q73.05-23.8 77.09-23.8L77.09-23.8Q78.15-23.8 78.72-23.23 79.3-22.65 79.3-21.6L79.3-21.6Q79.3-20.5 78.82-19.35 78.34-18.2 77.67-17.45 77-16.7 76.45-16.7L76.45-16.7Q76.09-16.7 76.2-17.15L76.2-17.15Q76.34-17.85 76.34-18.25L76.34-18.25Q76.34-19.45 75.05-19.45L75.05-19.45Q73.5-19.45 71.95-17.65 70.4-15.85 69.22-13.25 68.05-10.65 67.59-8.5L67.59-8.5Q67-6.2 66.84-3.7L66.84-3.7Q66.75-2.75 65.97-1.78 65.2-0.8 64.2-0.15 63.2 0.5 62.65 0.5L62.65 0.5ZM73.99 19.95Q73.29 19.95 72.82 19.78 72.34 19.6 71.79 19.05L71.79 19.05Q70.84 18.1 70.84 17.5L70.84 17.5Q70.84 17.25 71.24 17.25L71.24 17.25Q71.79 17.25 72.44 17.4L72.44 17.4Q74.44 17.75 75.44 17.75L75.44 17.75Q77.59 17.75 78.97 16.55 80.34 15.35 81.22 12.78 82.09 10.2 82.74 5.75L82.74 5.75 86.64-20.35 83.99-20.35Q82.59-20.35 81.89-20.03 81.19-19.7 81.09-19.7L81.09-19.7Q80.79-19.7 80.79-20.1L80.79-20.1Q80.79-20.55 81.09-21L81.09-21Q81.69-22 82.69-22.65 83.69-23.3 84.99-23.3L84.99-23.3 87.09-23.3 87.14-23.85Q88.14-29.1 89.42-32.83 90.69-36.55 92.84-39.25L92.84-39.25Q94.64-41.5 96.29-42.25 97.94-43 99.99-43.35L99.99-43.35Q101.09-43.55 101.49-43.65 101.89-43.75 102.04-43.75L102.04-43.75Q102.29-43.75 102.29-43.5L102.29-43.5Q102.29-42.9 101.29-41.95L101.29-41.95Q100.79-41.4 100.37-41.25 99.94-41.1 99.19-41.1L99.19-41.1Q97.74-41.05 96.64-40.43 95.54-39.8 94.59-38.5L94.59-38.5Q93.14-36.4 92.29-33.02 91.44-29.65 90.64-24.85L90.64-24.85 90.39-23.3 93.09-23.3Q94.44-23.3 95.17-23.63 95.89-23.95 96.04-23.95L96.04-23.95Q96.34-23.95 96.34-23.55L96.34-23.55Q96.34-23.25 96.04-22.65L96.04-22.65Q94.64-20.35 92.14-20.35L92.14-20.35 89.99-20.35 86.59 2.75Q83.99 19.95 73.99 19.95L73.99 19.95ZM99.79 0.5Q97.69 0.5 96.62-1.13 95.54-2.75 95.54-5.65L95.54-5.65Q95.54-9.7 97.49-13.95 99.44-18.2 102.32-21 105.19-23.8 107.79-23.8L107.79-23.8Q109.74-23.8 110.79-22.08 111.84-20.35 111.84-17.55L111.84-17.55Q111.84-13.8 110.02-9.55 108.19-5.3 105.39-2.4 102.59 0.5 99.79 0.5L99.79 0.5ZM102.24-2.8Q103.89-2.8 105.24-4.48 106.59-6.15 107.39-8.93 108.19-11.7 108.19-14.8L108.19-14.8Q108.19-20.5 105.24-20.5L105.24-20.5Q103.39-20.5 102.02-18.5 100.64-16.5 99.92-13.63 99.19-10.75 99.19-8.25L99.19-8.25Q99.19-5.85 99.92-4.33 100.64-2.8 102.24-2.8L102.24-2.8ZM119.44 0.5Q117.34 0.5 117.34-2.65L117.34-2.65Q117.34-4.2 117.84-7.05L117.84-7.05 119.54-17.35Q119.74-19.15 119.74-19.4L119.74-19.4Q119.74-20.15 119.34-20.15L119.34-20.15Q118.19-20.15 116.64-17.15L116.64-17.15Q116.54-16.95 116.31-16.48 116.09-16 115.94-15.88 115.79-15.75 115.64-15.75L115.64-15.75Q115.54-15.75 115.44-15.93 115.34-16.1 115.34-16.35L115.34-16.35Q115.34-17.35 116.36-19.18 117.39-21 118.89-22.4 120.39-23.8 121.74-23.8L121.74-23.8Q122.54-23.8 123.01-23.13 123.49-22.45 123.49-21.3L123.49-21.3Q123.49-20.55 123.39-20.15L123.39-20.15 121.04-5.4Q120.94-4.7 120.94-4.5L120.94-4.5Q120.94-3.45 121.74-3.45L121.74-3.45Q123.39-3.45 125.31-5.68 127.24-7.9 128.71-11 130.19-14.1 130.64-16.45L130.64-16.45 131.34-20.1Q131.74-21.9 132.96-22.85 134.19-23.8 135.24-23.8L135.24-23.8Q135.64-23.8 135.64-23.55L135.64-23.55Q135.64-23.4 135.44-22.98 135.24-22.55 135.14-21.95L135.14-21.95Q134.44-18.85 132.39-7.55L132.39-7.55 132.09-5.95Q131.74-4.2 131.74-3.8L131.74-3.8Q131.74-3.1 132.19-3.1L132.19-3.1Q132.99-3.1 133.96-4.38 134.94-5.65 135.54-7.15L135.54-7.15Q135.84-7.7 136.04-7.7L136.04-7.7Q136.34-7.7 136.34-7.25L136.34-7.25Q136.34-6.7 136.24-6.3L136.24-6.3Q135.89-4.5 134.84-2.95 133.79-1.4 132.49-0.45 131.19 0.5 130.09 0.5L130.09 0.5Q128.14 0.5 128.24-2.6L128.24-2.6Q128.34-3.95 128.84-6.25L128.84-6.25 129.29-8.7 129.24-8.7Q126.64-4.55 123.94-2.02 121.24 0.5 119.44 0.5L119.44 0.5ZM142.69 0.5Q141.14 0.5 140.04-0.35 138.94-1.2 138.59-2.6L138.59-2.6Q138.49-3 138.91-3.88 139.34-4.75 140.04-5.6L140.04-5.6Q140.44-6.05 140.69-6.05L140.69-6.05Q140.94-6.05 141.09-5.65L141.09-5.65Q142.59-2.15 145.24-2.15L145.24-2.15Q146.59-2.15 147.36-2.98 148.14-3.8 148.14-5.2L148.14-5.2Q148.14-7.1 145.99-10.1L145.99-10.1 144.94-11.6Q143.74-13.3 143.26-14.4 142.79-15.5 142.79-16.75L142.79-16.75Q142.79-18.75 143.86-20.35 144.94-21.95 146.69-22.88 148.44-23.8 150.34-23.8L150.34-23.8Q153.94-23.8 153.94-21.35L153.94-21.35Q153.94-20.45 153.29-19.55L153.29-19.55Q152.94-18.95 152.69-18.95L152.69-18.95Q152.39-18.95 152.14-19.55L152.14-19.55Q151.59-20.5 150.81-20.93 150.04-21.35 148.84-21.35L148.84-21.35Q147.44-21.35 146.59-20.6 145.74-19.85 145.74-18.7L145.74-18.7Q145.74-18.05 146.16-17.23 146.59-16.4 147.79-14.7L147.79-14.7 148.84-13.25Q150.24-11.4 150.79-10.08 151.34-8.75 151.34-7.3L151.34-7.3Q151.34-5.45 150.14-3.63 148.94-1.8 146.94-0.65 144.94 0.5 142.69 0.5L142.69 0.5ZM163.23-26.65Q162.73-26.65 162.78-27.15L162.78-27.15 163.38-30.65Q163.63-32.1 164.46-32.88 165.28-33.65 166.53-33.65L166.53-33.65 166.73-33.65Q167.03-33.65 167.11-33.55 167.18-33.45 167.13-33.15L167.13-33.15 166.58-29.7Q166.38-28.3 165.53-27.48 164.68-26.65 163.43-26.65L163.43-26.65 163.23-26.65ZM160.28 0.5Q158.68 0.5 158.68-1.8L158.68-1.8Q158.68-2.95 158.98-4.45L158.98-4.45 161.38-17.8Q161.58-19.1 161.58-19.4L161.58-19.4Q161.58-20.15 161.13-20.15L161.13-20.15Q160.53-20.15 159.68-19.2 158.83-18.25 157.83-16.2L157.83-16.2Q157.63-15.6 157.33-15.6L157.33-15.6Q157.03-15.6 157.03-16.1L157.03-16.1Q157.03-17.3 158.11-19.18 159.18-21.05 160.76-22.43 162.33-23.8 163.68-23.8L163.68-23.8Q165.23-23.8 165.23-21.6L165.23-21.6Q165.23-20.55 164.93-18.85L164.93-18.85 162.33-4.4 162.23-3.75Q162.23-3.2 162.68-3.2L162.68-3.2Q163.28-3.2 164.13-4.17 164.98-5.15 165.98-7.15L165.98-7.15Q166.23-7.7 166.48-7.7L166.48-7.7Q166.78-7.7 166.78-7.05L166.78-7.05Q166.78-5.9 165.71-4.08 164.63-2.25 163.08-0.88 161.53 0.5 160.28 0.5L160.28 0.5Z" opacity="1" transform="matrix(1,0,0,1,0,0)" fill="black" class="wordmark-text-0" id="SvgjsPath1418" stroke-width="5" stroke="black" stroke-linejoin="round"></path></svg></g></svg></g></svg></g></svg></g></svg></g></svg></g></svg></g></mask><g mask="url(#68a4318b-446f-459a-b019-57b184aa0794)"><g><path d="M73.464 247.2c-1.114 0-1.67-0.835-1.67-2.505v0c0-1.856 0.557-3.897 1.67-6.125 1.114-2.227 2.505-4.083 4.176-5.567v0c4.64-3.712 7.757-6.458 9.353-8.24 1.559-1.744 2.802-3.823 3.731-6.236 0.928-2.413 2.041-6.681 3.34-12.805v0l28.673-133.9h-1.949c-1.114 0-3.526-0.186-7.237-0.557v0c-6.681-0.557-10.3-0.835-10.857-0.835v0c-10.393 0-18.28 3.433-23.662 10.3v0c-0.371 0.557-1.021 1.522-1.949 2.895-0.928 1.41-1.763 2.116-2.505 2.116v0c-0.928 0-1.392-0.835-1.392-2.506v0c0-1.856 0.278-3.433 0.835-4.732v0c1.856-7.795 5.846-13.826 11.97-18.095 6.124-4.268 13.641-6.403 22.549-6.403v0l9.186 0.279c5.196 0.371 9.372 0.557 12.527 0.557v0c2.969 0 6.31-0.186 10.022-0.557v0l7.238-0.279c-0.742 2.413-1.114 5.939-1.114 10.579v0c0 6.124 0.891 13.863 2.673 23.217 1.744 9.391 4.473 22.252 8.184 38.583v0l8.63 40.365c0.371 1.67 1.577 8.444 3.619 20.321v0c7.795-15.404 18.15-35.874 31.067-61.41 12.88-25.499 23.402-46.229 31.568-62.19v0c7.052-13.362 13.603-23.903 19.653-31.624 6.013-7.683 12.267-13.752 18.763-18.205v0c5.382-3.526 10.857-6.087 16.424-7.684 5.568-1.559 12.434-2.617 20.6-3.173v0c6.31-0.371 10.393-0.928 12.249-1.67v0c0.371-0.186 0.798-0.427 1.28-0.724 0.445-0.26 0.854-0.39 1.225-0.39v0c0.928 0 1.392 0.742 1.392 2.227v0c0 6.31-5.753 10.393-17.259 12.249v0c-0.742 0.186-3.062 0.557-6.96 1.113-3.897 0.557-7.739 1.522-11.525 2.895-3.823 1.41-7.126 3.229-9.91 5.457v0c-6.124 4.825-11.414 12.75-15.867 23.773-4.454 11.061-8.073 26.706-10.857 46.935v0c-1.299 8.166-2.877 22.827-4.733 43.983v0c-2.227 27.838-5.289 53.82-9.186 77.946v0c-0.557 4.454-2.32 8.351-5.289 11.692v0 0.279c4.64 1.67 8.537 2.505 11.692 2.505v0c2.598 0 5.289-0.52 8.073-1.559 2.784-1.002 4.454-1.503 5.01-1.503v0c0.928 0 1.392 0.557 1.392 1.67v0c0 1.485-1.206 3.526-3.619 6.124v0c-6.495 7.609-12.063 11.414-16.702 11.414v0c-1.485 0-5.011-0.742-10.579-2.227v0c-6.681-1.67-11.042-2.505-13.084-2.505v0c-3.341 0-6.811 0.779-10.411 2.338-3.637 1.596-5.642 2.394-6.013 2.394v0c-1.114 0-1.67-0.835-1.67-2.505v0c0-1.67 0.557-3.582 1.67-5.735 1.114-2.116 2.784-4.101 5.011-5.957v0c5.382-3.897 8.871-6.867 10.467-8.908 1.559-2.041 2.617-4.825 3.174-8.352v0l1.391-12.527c2.041-18.559 4.046-36.56 6.013-54.005 1.93-17.445 3.73-33.777 5.401-48.995v0h-0.557c-28.58 50.665-46.953 87.04-55.119 109.125v0c-2.784 5.939-6.032 11.785-9.743 17.537-3.712 5.753-6.403 8.63-8.073 8.63v0c-1.485 0-2.227-0.928-2.227-2.784v0c-0.557-11.321-1.429-21.12-2.617-29.396-1.225-8.24-3.693-21.361-7.405-39.363v0c-2.969-14.847-4.454-22.27-4.454-22.27v0c-3.526-15.589-6.032-28.023-7.516-37.303v0h-0.278l-23.384 112.186c-0.557 4.64-2.227 8.537-5.011 11.692v0 0.279c5.011 1.67 8.723 2.505 11.135 2.505v0c2.227 0 4.361-0.52 6.403-1.559 2.041-1.002 3.341-1.503 3.897-1.503v0c0.928 0 1.392 0.557 1.392 1.67v0c0 1.67-1.206 3.712-3.619 6.124v0c-7.052 7.609-12.62 11.414-16.702 11.414v0c-1.67 0-4.361-0.742-8.073-2.227v0c-0.557-0.186-1.893-0.65-4.009-1.392-2.153-0.742-4.25-1.114-6.291-1.113v0c-2.969 0-5.846 0.779-8.63 2.338-2.784 1.596-4.454 2.394-5.011 2.394z" fill="#ed2647" fill-rule="nonzero" stroke="none" stroke-width="1" stroke-linecap="butt" stroke-linejoin="miter" stroke-miterlimit="10" stroke-dasharray="" stroke-dashoffset="0" font-family="none" font-weight="none" font-size="none" text-anchor="none" style="mix-blend-mode: normal" data-fill-palette-color="tertiary"></path></g></g><g transform="matrix(1,0,0,1,0,43.19514568798732)"><svg viewBox="0 0 395.52 160.80970862402535" height="160.80970862402535" width="395.52"><g><svg viewBox="0 0 395.52 160.80970862402535" height="160.80970862402535" width="395.52"><g><svg viewBox="0 0 395.52 160.80970862402535" height="160.80970862402535" width="395.52"><g><svg viewBox="0 0 395.52 160.80970862402535" height="160.80970862402535" width="395.52"><g id="textblocktransform"><svg viewBox="0 0 395.52 160.80970862402535" height="160.80970862402535" width="395.52" id="textblock"><g><svg viewBox="0 0 395.52 160.80970862402535" height="160.80970862402535" width="395.52"><g transform="matrix(1,0,0,1,0,0)"><svg width="395.52" viewBox="-1.4 -47.4 171.55083333333332 70.35" height="160.80970862402535" data-palette-color="#ed2647"><path d="M1.9 0Q1.6 0 1.6-0.45L1.6-0.45Q1.6-0.95 1.9-1.55 2.2-2.15 2.65-2.55L2.65-2.55Q3.9-3.55 4.33-4.03 4.75-4.5 5-5.15 5.25-5.8 5.6-7.45L5.6-7.45 10.75-31.5 10.4-31.5Q10.1-31.5 9.1-31.6L9.1-31.6Q7.3-31.75 7.15-31.75L7.15-31.75Q4.35-31.75 2.9-29.9L2.9-29.9Q2.8-29.75 2.55-29.38 2.3-29 2.1-29L2.1-29Q1.85-29 1.85-29.45L1.85-29.45Q1.85-29.95 2-30.3L2-30.3Q2.5-32.4 4.15-33.55 5.8-34.7 8.2-34.7L8.2-34.7 9.85-34.65Q11.25-34.55 12.1-34.55L12.1-34.55Q12.9-34.55 13.9-34.65L13.9-34.65 15.2-34.7Q15-34.05 15-32.8L15-32.8Q15-31.15 15.48-28.63 15.95-26.1 16.95-21.7L16.95-21.7 18.5-14.45Q18.6-14 19.15-10.8L19.15-10.8Q21.25-14.95 24.73-21.83 28.2-28.7 30.4-33L30.4-33Q32.3-36.6 33.93-38.68 35.55-40.75 37.3-41.95L37.3-41.95Q38.75-42.9 40.25-43.33 41.75-43.75 43.95-43.9L43.95-43.9Q45.65-44 46.15-44.2L46.15-44.2Q46.25-44.25 46.38-44.33 46.5-44.4 46.6-44.4L46.6-44.4Q46.85-44.4 46.85-44L46.85-44Q46.85-42.3 43.75-41.8L43.75-41.8Q43.55-41.75 42.5-41.6 41.45-41.45 40.43-41.08 39.4-40.7 38.65-40.1L38.65-40.1Q37-38.8 35.8-35.83 34.6-32.85 33.85-27.4L33.85-27.4Q33.5-25.2 33-19.5L33-19.5Q32.4-12 31.35-5.5L31.35-5.5Q31.2-4.3 30.4-3.4L30.4-3.4 30.4-3.35Q31.65-2.9 32.5-2.9L32.5-2.9Q33.2-2.9 33.95-3.18 34.7-3.45 34.85-3.45L34.85-3.45Q35.1-3.45 35.1-3.15L35.1-3.15Q35.1-2.75 34.45-2.05L34.45-2.05Q32.7 0 31.45 0L31.45 0Q31.05 0 29.55-0.4L29.55-0.4Q27.75-0.85 27.2-0.85L27.2-0.85Q26.3-0.85 25.33-0.43 24.35 0 24.25 0L24.25 0Q23.95 0 23.95-0.45L23.95-0.45Q23.95-0.9 24.25-1.48 24.55-2.05 25.15-2.55L25.15-2.55Q26.6-3.6 27.03-4.15 27.45-4.7 27.6-5.65L27.6-5.65 27.85-7.9Q28.4-12.9 28.93-17.6 29.45-22.3 29.9-26.4L29.9-26.4 29.8-26.4Q22.1-12.75 19.9-6.8L19.9-6.8Q19.15-5.2 18.15-3.65 17.15-2.1 16.7-2.1L16.7-2.1Q16.3-2.1 16.3-2.6L16.3-2.6Q16.15-5.65 15.83-7.88 15.5-10.1 14.5-14.95L14.5-14.95Q13.7-18.95 13.7-18.95L13.7-18.95Q12.75-23.15 12.35-25.65L12.35-25.65 12.3-25.65 8.1-5.5Q7.95-4.25 7.2-3.4L7.2-3.4 7.2-3.35Q8.55-2.9 9.2-2.9L9.2-2.9Q9.8-2.9 10.35-3.18 10.9-3.45 11.05-3.45L11.05-3.45Q11.3-3.45 11.3-3.15L11.3-3.15Q11.3-2.7 10.65-2.05L10.65-2.05Q8.75 0 7.65 0L7.65 0Q7.2 0 6.2-0.4L6.2-0.4Q6.05-0.45 5.48-0.65 4.9-0.85 4.35-0.85L4.35-0.85Q3.55-0.85 2.8-0.43 2.05 0 1.9 0L1.9 0ZM41 0.5Q38.45 0.5 38.45-4.35L38.45-4.35Q38.45-9 40.47-13.53 42.5-18.05 45.95-20.93 49.4-23.8 53.4-23.8L53.4-23.8Q55.45-23.8 56.95-23.15L56.95-23.15Q56.3-20.6 56.05-19.4L56.05-19.4 55-14Q53.6-7.6 53.3-5.15L53.3-5.15Q53.25-4.8 53.25-4.3L53.25-4.3Q53.25-3.2 53.9-3.2L53.9-3.2Q54.7-3.2 55.4-4.23 56.1-5.25 57-7.15L57-7.15Q57.05-7.2 57.17-7.45 57.3-7.7 57.5-7.7L57.5-7.7Q57.8-7.7 57.8-7.1L57.8-7.1 57.7-6.3Q57.35-4.65 56.27-3.05 55.2-1.45 53.87-0.48 52.55 0.5 51.5 0.5L51.5 0.5Q49.75 0.5 49.75-2.35L49.75-2.35Q49.75-3.45 50-4.6L50-4.6 50.85-8.95 50.8-8.95Q48.4-4.75 45.67-2.13 42.95 0.5 41 0.5L41 0.5ZM43.35-3.6Q44.75-3.6 46.57-5.78 48.4-7.95 49.97-11.1 51.55-14.25 52.15-16.75L52.15-16.75 52.95-19.95Q51.45-20.95 49.8-20.95L49.8-20.95Q47.65-20.95 45.87-18.48 44.1-16 43.1-12.48 42.1-8.95 42.1-6.1L42.1-6.1Q42.1-4.85 42.37-4.23 42.65-3.6 43.35-3.6L43.35-3.6ZM62.65 0.5Q62.45 0.5 62.32 0.43 62.2 0.35 62.2 0.25L62.2 0.25Q62.2 0.1 62.5-0.4 62.8-0.9 62.95-1.8L62.95-1.8Q63.15-2.85 63.3-3.73 63.45-4.6 63.6-5.35L63.6-5.35Q64.84-12.2 65.27-14.93 65.7-17.65 65.65-18.9L65.65-18.9Q65.65-19.55 65.55-19.85 65.45-20.15 65.09-20.15L65.09-20.15Q64.65-20.15 63.95-19.4 63.25-18.65 62.65-17.65L62.65-17.65Q62.4-17.2 62.2-16.88 62-16.55 61.87-16.4 61.75-16.25 61.6-16.25L61.6-16.25Q61.4-16.25 61.3-16.4 61.2-16.55 61.2-16.8L61.2-16.8Q61.2-17.75 62.27-19.45 63.35-21.15 64.82-22.48 66.3-23.8 67.45-23.8L67.45-23.8Q68.4-23.8 68.77-23.05 69.15-22.3 69.15-20.7L69.15-20.7Q69.15-18.5 68.2-14.75L68.2-14.75 68.3-14.75Q73.05-23.8 77.09-23.8L77.09-23.8Q78.15-23.8 78.72-23.23 79.3-22.65 79.3-21.6L79.3-21.6Q79.3-20.5 78.82-19.35 78.34-18.2 77.67-17.45 77-16.7 76.45-16.7L76.45-16.7Q76.09-16.7 76.2-17.15L76.2-17.15Q76.34-17.85 76.34-18.25L76.34-18.25Q76.34-19.45 75.05-19.45L75.05-19.45Q73.5-19.45 71.95-17.65 70.4-15.85 69.22-13.25 68.05-10.65 67.59-8.5L67.59-8.5Q67-6.2 66.84-3.7L66.84-3.7Q66.75-2.75 65.97-1.78 65.2-0.8 64.2-0.15 63.2 0.5 62.65 0.5L62.65 0.5ZM73.99 19.95Q73.29 19.95 72.82 19.78 72.34 19.6 71.79 19.05L71.79 19.05Q70.84 18.1 70.84 17.5L70.84 17.5Q70.84 17.25 71.24 17.25L71.24 17.25Q71.79 17.25 72.44 17.4L72.44 17.4Q74.44 17.75 75.44 17.75L75.44 17.75Q77.59 17.75 78.97 16.55 80.34 15.35 81.22 12.78 82.09 10.2 82.74 5.75L82.74 5.75 86.64-20.35 83.99-20.35Q82.59-20.35 81.89-20.03 81.19-19.7 81.09-19.7L81.09-19.7Q80.79-19.7 80.79-20.1L80.79-20.1Q80.79-20.55 81.09-21L81.09-21Q81.69-22 82.69-22.65 83.69-23.3 84.99-23.3L84.99-23.3 87.09-23.3 87.14-23.85Q88.14-29.1 89.42-32.83 90.69-36.55 92.84-39.25L92.84-39.25Q94.64-41.5 96.29-42.25 97.94-43 99.99-43.35L99.99-43.35Q101.09-43.55 101.49-43.65 101.89-43.75 102.04-43.75L102.04-43.75Q102.29-43.75 102.29-43.5L102.29-43.5Q102.29-42.9 101.29-41.95L101.29-41.95Q100.79-41.4 100.37-41.25 99.94-41.1 99.19-41.1L99.19-41.1Q97.74-41.05 96.64-40.43 95.54-39.8 94.59-38.5L94.59-38.5Q93.14-36.4 92.29-33.02 91.44-29.65 90.64-24.85L90.64-24.85 90.39-23.3 93.09-23.3Q94.44-23.3 95.17-23.63 95.89-23.95 96.04-23.95L96.04-23.95Q96.34-23.95 96.34-23.55L96.34-23.55Q96.34-23.25 96.04-22.65L96.04-22.65Q94.64-20.35 92.14-20.35L92.14-20.35 89.99-20.35 86.59 2.75Q83.99 19.95 73.99 19.95L73.99 19.95ZM99.79 0.5Q97.69 0.5 96.62-1.13 95.54-2.75 95.54-5.65L95.54-5.65Q95.54-9.7 97.49-13.95 99.44-18.2 102.32-21 105.19-23.8 107.79-23.8L107.79-23.8Q109.74-23.8 110.79-22.08 111.84-20.35 111.84-17.55L111.84-17.55Q111.84-13.8 110.02-9.55 108.19-5.3 105.39-2.4 102.59 0.5 99.79 0.5L99.79 0.5ZM102.24-2.8Q103.89-2.8 105.24-4.48 106.59-6.15 107.39-8.93 108.19-11.7 108.19-14.8L108.19-14.8Q108.19-20.5 105.24-20.5L105.24-20.5Q103.39-20.5 102.02-18.5 100.64-16.5 99.92-13.63 99.19-10.75 99.19-8.25L99.19-8.25Q99.19-5.85 99.92-4.33 100.64-2.8 102.24-2.8L102.24-2.8ZM119.44 0.5Q117.34 0.5 117.34-2.65L117.34-2.65Q117.34-4.2 117.84-7.05L117.84-7.05 119.54-17.35Q119.74-19.15 119.74-19.4L119.74-19.4Q119.74-20.15 119.34-20.15L119.34-20.15Q118.19-20.15 116.64-17.15L116.64-17.15Q116.54-16.95 116.31-16.48 116.09-16 115.94-15.88 115.79-15.75 115.64-15.75L115.64-15.75Q115.54-15.75 115.44-15.93 115.34-16.1 115.34-16.35L115.34-16.35Q115.34-17.35 116.36-19.18 117.39-21 118.89-22.4 120.39-23.8 121.74-23.8L121.74-23.8Q122.54-23.8 123.01-23.13 123.49-22.45 123.49-21.3L123.49-21.3Q123.49-20.55 123.39-20.15L123.39-20.15 121.04-5.4Q120.94-4.7 120.94-4.5L120.94-4.5Q120.94-3.45 121.74-3.45L121.74-3.45Q123.39-3.45 125.31-5.68 127.24-7.9 128.71-11 130.19-14.1 130.64-16.45L130.64-16.45 131.34-20.1Q131.74-21.9 132.96-22.85 134.19-23.8 135.24-23.8L135.24-23.8Q135.64-23.8 135.64-23.55L135.64-23.55Q135.64-23.4 135.44-22.98 135.24-22.55 135.14-21.95L135.14-21.95Q134.44-18.85 132.39-7.55L132.39-7.55 132.09-5.95Q131.74-4.2 131.74-3.8L131.74-3.8Q131.74-3.1 132.19-3.1L132.19-3.1Q132.99-3.1 133.96-4.38 134.94-5.65 135.54-7.15L135.54-7.15Q135.84-7.7 136.04-7.7L136.04-7.7Q136.34-7.7 136.34-7.25L136.34-7.25Q136.34-6.7 136.24-6.3L136.24-6.3Q135.89-4.5 134.84-2.95 133.79-1.4 132.49-0.45 131.19 0.5 130.09 0.5L130.09 0.5Q128.14 0.5 128.24-2.6L128.24-2.6Q128.34-3.95 128.84-6.25L128.84-6.25 129.29-8.7 129.24-8.7Q126.64-4.55 123.94-2.02 121.24 0.5 119.44 0.5L119.44 0.5ZM142.69 0.5Q141.14 0.5 140.04-0.35 138.94-1.2 138.59-2.6L138.59-2.6Q138.49-3 138.91-3.88 139.34-4.75 140.04-5.6L140.04-5.6Q140.44-6.05 140.69-6.05L140.69-6.05Q140.94-6.05 141.09-5.65L141.09-5.65Q142.59-2.15 145.24-2.15L145.24-2.15Q146.59-2.15 147.36-2.98 148.14-3.8 148.14-5.2L148.14-5.2Q148.14-7.1 145.99-10.1L145.99-10.1 144.94-11.6Q143.74-13.3 143.26-14.4 142.79-15.5 142.79-16.75L142.79-16.75Q142.79-18.75 143.86-20.35 144.94-21.95 146.69-22.88 148.44-23.8 150.34-23.8L150.34-23.8Q153.94-23.8 153.94-21.35L153.94-21.35Q153.94-20.45 153.29-19.55L153.29-19.55Q152.94-18.95 152.69-18.95L152.69-18.95Q152.39-18.95 152.14-19.55L152.14-19.55Q151.59-20.5 150.81-20.93 150.04-21.35 148.84-21.35L148.84-21.35Q147.44-21.35 146.59-20.6 145.74-19.85 145.74-18.7L145.74-18.7Q145.74-18.05 146.16-17.23 146.59-16.4 147.79-14.7L147.79-14.7 148.84-13.25Q150.24-11.4 150.79-10.08 151.34-8.75 151.34-7.3L151.34-7.3Q151.34-5.45 150.14-3.63 148.94-1.8 146.94-0.65 144.94 0.5 142.69 0.5L142.69 0.5ZM163.23-26.65Q162.73-26.65 162.78-27.15L162.78-27.15 163.38-30.65Q163.63-32.1 164.46-32.88 165.28-33.65 166.53-33.65L166.53-33.65 166.73-33.65Q167.03-33.65 167.11-33.55 167.18-33.45 167.13-33.15L167.13-33.15 166.58-29.7Q166.38-28.3 165.53-27.48 164.68-26.65 163.43-26.65L163.43-26.65 163.23-26.65ZM160.28 0.5Q158.68 0.5 158.68-1.8L158.68-1.8Q158.68-2.95 158.98-4.45L158.98-4.45 161.38-17.8Q161.58-19.1 161.58-19.4L161.58-19.4Q161.58-20.15 161.13-20.15L161.13-20.15Q160.53-20.15 159.68-19.2 158.83-18.25 157.83-16.2L157.83-16.2Q157.63-15.6 157.33-15.6L157.33-15.6Q157.03-15.6 157.03-16.1L157.03-16.1Q157.03-17.3 158.11-19.18 159.18-21.05 160.76-22.43 162.33-23.8 163.68-23.8L163.68-23.8Q165.23-23.8 165.23-21.6L165.23-21.6Q165.23-20.55 164.93-18.85L164.93-18.85 162.33-4.4 162.23-3.75Q162.23-3.2 162.68-3.2L162.68-3.2Q163.28-3.2 164.13-4.17 164.98-5.15 165.98-7.15L165.98-7.15Q166.23-7.7 166.48-7.7L166.48-7.7Q166.78-7.7 166.78-7.05L166.78-7.05Q166.78-5.9 165.71-4.08 164.63-2.25 163.08-0.88 161.53 0.5 160.28 0.5L160.28 0.5Z" opacity="1" transform="matrix(1,0,0,1,0,0)" fill="#ed2647" class="wordmark-text-0" data-fill-palette-color="primary" id="text-0"></path></svg></g></svg></g></svg></g></svg></g></svg></g></svg></g></svg></g></svg></g><defs></defs></svg><rect width="395.52" height="247.2" fill="none" stroke="none" visibility="hidden"></rect></g></svg></g></svg>