<svg xmlns="http://www.w3.org/2000/svg" version="1.1" xmlns:xlink="http://www.w3.org/1999/xlink" xmlns:svgjs="http://svgjs.dev/svgjs" width="1500" height="935" viewBox="0 0 1500 935"><g transform="matrix(1,0,0,1,-0.9090909090909918,0.3785425101214628)"><svg viewBox="0 0 396 247" data-background-color="#ffffff" preserveAspectRatio="xMidYMid meet" height="935" width="1500" xmlns="http://www.w3.org/2000/svg" xmlns:xlink="http://www.w3.org/1999/xlink"><g id="tight-bounds" transform="matrix(1,0,0,1,0.2400000000000091,-0.09999999999999432)"><svg viewBox="0 0 395.52 247.2" height="247.2" width="395.52"><g><svg></svg></g><g><svg viewBox="0 0 395.52 247.2" height="247.2" width="395.52"><g transform="matrix(1,0,0,1,129.01368,47.215199999999996)"><svg viewBox="0 0 137.49264 152.7696" height="152.7696" width="137.49264"><g><svg viewBox="0 0 137.49264 152.7696" height="152.7696" width="137.49264"><g><svg viewBox="0 0 137.49264 152.7696" height="152.7696" width="137.49264"><g><svg viewBox="0 0 137.49264 152.7696" height="152.7696" width="137.49264"><g id="textblocktransform"><svg viewBox="0 0 137.49264 152.7696" height="152.7696" width="137.49264" id="textblock"><g><svg viewBox="0 0 137.49264 152.7696" height="152.7696" width="137.49264"><g transform="matrix(1,0,0,1,0,0)"><svg width="137.49264" viewBox="1 -35 31.5 35" height="152.7696" data-palette-color="url(#573f4970-609b-4934-ade3-d81868edc4b5)"></svg></g></svg></g></svg></g></svg></g></svg></g></svg></g></svg></g></svg></g><defs></defs><mask id="984bcd2a-67e4-433f-9623-5e9a597b7c69"><g id="SvgjsG2205"><svg viewBox="0 0 395.52 247.2" height="247.2" width="395.52"><g><svg></svg></g><g><svg viewBox="0 0 395.52 247.2" height="247.2" width="395.52"><g transform="matrix(1,0,0,1,129.01368,47.215199999999996)"><svg viewBox="0 0 137.49264 152.7696" height="152.7696" width="137.49264"><g><svg viewBox="0 0 137.49264 152.7696" height="152.7696" width="137.49264"><g><svg viewBox="0 0 137.49264 152.7696" height="152.7696" width="137.49264"><g><svg viewBox="0 0 137.49264 152.7696" height="152.7696" width="137.49264"><g id="SvgjsG2204"><svg viewBox="0 0 137.49264 152.7696" height="152.7696" width="137.49264" id="SvgjsSvg2203"><g><svg viewBox="0 0 137.49264 152.7696" height="152.7696" width="137.49264"><g transform="matrix(1,0,0,1,0,0)"><svg width="137.49264" viewBox="1 -35 31.5 35" height="152.7696" data-palette-color="url(#573f4970-609b-4934-ade3-d81868edc4b5)"><path d="M4.55 0L2 0Q1.6 0 1.3-0.3 1-0.6 1-1L1-1Q1-1.25 1.05-1.55L1.05-1.55 13.45-33.9Q13.65-34.4 14-34.7 14.35-35 15.05-35L15.05-35 18.45-35Q19.15-35 19.5-34.7 19.85-34.4 20.05-33.9L20.05-33.9 32.4-1.55Q32.5-1.25 32.5-1L32.5-1Q32.5-0.6 32.2-0.3 31.9 0 31.5 0L31.5 0 28.95 0Q28.35 0 28.08-0.3 27.8-0.6 27.7-0.85L27.7-0.85 24.95-7.95 8.55-7.95 5.8-0.85Q5.75-0.6 5.45-0.3 5.15 0 4.55 0L4.55 0ZM16.75-30L10-12.25 23.5-12.25 16.75-30Z" opacity="1" transform="matrix(1,0,0,1,0,0)" fill="white" class="wordmark-text-0" id="SvgjsPath2202"></path></svg></g></svg></g></svg></g></svg></g></svg></g></svg></g></svg></g><path d="M311.315 41.215L311.315 0 64.115 0 64.115 247.2 311.315 247.2 311.315 205.985 297.538 205.985 297.538 233.423 77.892 233.423 77.892 13.777 297.538 13.777 297.538 41.215Z" fill="white" stroke="transparent"></path></svg></g><defs><mask></mask></defs></svg><rect width="395.52" height="247.2" fill="black" stroke="none" visibility="hidden"></rect></g></mask><linearGradient x1="0.054" x2="0.941" y1="0.5" y2="0.5" id="573f4970-609b-4934-ade3-d81868edc4b5"><stop stop-color="#9c7945" offset="0"></stop><stop stop-color="#faf3aa" offset="0.498"></stop><stop stop-color="#9c7945" offset="1"></stop></linearGradient><rect width="395.52" height="247.2" fill="url(#573f4970-609b-4934-ade3-d81868edc4b5)" mask="url(#984bcd2a-67e4-433f-9623-5e9a597b7c69)" data-fill-palette-color="primary"></rect></svg><rect width="395.52" height="247.2" fill="none" stroke="none" visibility="hidden"></rect></g></svg></g></svg>